<?xml version="1.0" encoding="UTF-8" standalone="no"?>
<!-- Created with Inkscape (http://www.inkscape.org/) -->

<svg
   xmlns:dc="http://purl.org/dc/elements/1.1/"
   xmlns:cc="http://creativecommons.org/ns#"
   xmlns:rdf="http://www.w3.org/1999/02/22-rdf-syntax-ns#"
   xmlns:svg="http://www.w3.org/2000/svg"
   xmlns="http://www.w3.org/2000/svg"
   xmlns:xlink="http://www.w3.org/1999/xlink"
   xmlns:sodipodi="http://sodipodi.sourceforge.net/DTD/sodipodi-0.dtd"
   xmlns:inkscape="http://www.inkscape.org/namespaces/inkscape"
   width="400"
   height="100"
   viewBox="0 0 105.83336 26.458334"
   version="1.1"
   id="svg8"
   inkscape:version="0.92.1 unknown"
   sodipodi:docname="logo.svg">
  <defs
     id="defs2">
    <linearGradient
       inkscape:collect="always"
       id="linearGradient4566">
      <stop
         style="stop-color:#ffffff;stop-opacity:1;"
         offset="0"
         id="stop4562" />
      <stop
         style="stop-color:#ffffff;stop-opacity:0;"
         offset="1"
         id="stop4564" />
    </linearGradient>
    <linearGradient
       inkscape:collect="always"
       xlink:href="#linearGradient4566"
       id="linearGradient4568"
       x1="34.51881"
       y1="145.65369"
       x2="41.93203"
       y2="145.65369"
       gradientUnits="userSpaceOnUse"
       gradientTransform="matrix(0.68725954,0,0,0.68725954,0.36412,186.37429)" />
    <linearGradient
       inkscape:collect="always"
       xlink:href="#linearGradient4566"
       id="linearGradient4570"
       x1="41.861366"
       y1="142.56429"
       x2="47.483242"
       y2="142.56429"
       gradientUnits="userSpaceOnUse"
       gradientTransform="matrix(0.68725954,0,0,0.68725954,0.36412,186.37429)" />
  </defs>
  <sodipodi:namedview
     id="base"
     pagecolor="#ffffff"
     bordercolor="#666666"
     borderopacity="1.0"
     inkscape:pageopacity="0.0"
     inkscape:pageshadow="2"
     inkscape:zoom="1.979899"
     inkscape:cx="148.18894"
     inkscape:cy="95.098092"
     inkscape:document-units="mm"
     inkscape:current-layer="text4568"
     showgrid="false"
     units="px"
     inkscape:window-width="1920"
     inkscape:window-height="1056"
     inkscape:window-x="1920"
     inkscape:window-y="24"
     inkscape:window-maximized="1"
     showguides="true"
     inkscape:guide-bbox="true">
    <sodipodi:guide
       position="-3.6081395,37.818639"
       orientation="1,0"
       id="guide4641"
       inkscape:locked="false" />
  </sodipodi:namedview>
  <metadata
     id="metadata5">
    <rdf:RDF>
      <cc:Work
         rdf:about="">
        <dc:format>image/svg+xml</dc:format>
        <dc:type
           rdf:resource="http://purl.org/dc/dcmitype/StillImage" />
        <dc:title />
      </cc:Work>
    </rdf:RDF>
  </metadata>
  <g
     inkscape:label="Camada 1"
     inkscape:groupmode="layer"
     id="layer1"
     transform="translate(0,-270.54145)">
    <g
       aria-label="TracePath"
       style="font-style:normal;font-weight:normal;font-size:22.12895393px;line-height:13.83059597px;font-family:sans-serif;letter-spacing:0px;word-spacing:0px;fill:#38b686;fill-opacity:1;stroke:none;stroke-width:0.55322385"
       id="text4487"
       transform="matrix(0.90526074,0,0,0.90526074,-21.837247,169.23523)" />
    <text
       xml:space="preserve"
       style="font-style:normal;font-weight:normal;font-size:10.58333302px;line-height:6.61458302px;font-family:sans-serif;letter-spacing:0px;word-spacing:0px;fill:#000000;fill-opacity:1;stroke:none;stroke-width:0.26458332"
       x="32.339615"
       y="254.3703"
       id="text4530"><tspan
         sodipodi:role="line"
         id="tspan4528"
         x="32.339615"
         y="260.42679"
         style="stroke-width:0.26458332" /></text>
    <g
       aria-label="TRACEPATH"
       style="font-style:normal;font-weight:normal;font-size:11.68852901px;line-height:7.30533028px;font-family:sans-serif;letter-spacing:0px;word-spacing:0px;fill:#00bc66;fill-opacity:1;stroke:none;stroke-width:0.2922132"
       id="text4569">
      <g
         aria-label="TRACEPATH"
         style="font-style:normal;font-weight:normal;font-size:18.19470215px;line-height:11.37168789px;font-family:sans-serif;letter-spacing:0px;word-spacing:0px;fill:#00bc66;fill-opacity:1;stroke:none;stroke-width:0.1329183"
         id="text4568">
        <g
           id="g4650"
           transform="matrix(1.133444,0,0,1.133444,-3.3910997,-112.43569)">
          <path
             id="path4525"
             d="M 24.048824,283.77061 A 10.215347,10.215347 0 0 1 13.833478,293.98597 10.215347,10.215347 0 0 1 3.6181307,283.77061 10.215347,10.215347 0 0 1 13.833478,273.55527 10.215347,10.215347 0 0 1 24.048824,283.77061 Z"
             style="opacity:1;vector-effect:none;fill:#00bc66;fill-opacity:1;stroke:none;stroke-width:0.26559353;stroke-linecap:butt;stroke-linejoin:miter;stroke-miterlimit:4;stroke-dasharray:none;stroke-dashoffset:0;stroke-opacity:1;paint-order:markers stroke fill"
             inkscape:connector-curvature="0" />
          <g
             transform="translate(-14.824148,-0.52954042)"
             id="g4516">
            <path
               style="fill:url(#linearGradient4570);fill-opacity:1;stroke:#ffffff;stroke-width:0.43399999;stroke-linecap:butt;stroke-linejoin:miter;stroke-miterlimit:4;stroke-dasharray:none;stroke-opacity:1"
               d="m 32.965215,280.98217 -3.799256,6.74157"
               id="path4493-2"
               inkscape:connector-curvature="0" />
            <path
               style="fill:url(#linearGradient4568);fill-opacity:1;stroke:#ffffff;stroke-width:0.43399999;stroke-linecap:butt;stroke-linejoin:miter;stroke-miterlimit:4;stroke-dasharray:none;stroke-opacity:1"
               d="m 24.103849,285.22863 5.06211,2.49511"
               id="path4495-7"
               inkscape:connector-curvature="0" />
            <path
               inkscape:connector-curvature="0"
               id="path4489-86"
               d="m 33.365573,283.39235 a 1.9628321,1.9628321 0 0 1 -2.618326,-0.92185 1.9628321,1.9628321 0 0 1 0.921841,-2.61832 1.9628321,1.9628321 0 0 1 2.618326,0.92184 1.9628321,1.9628321 0 0 1 -0.921841,2.61833 z"
               style="opacity:1;vector-effect:none;fill:#ffffff;fill-opacity:0.98235294;stroke:#ffffff;stroke-width:0.1530977;stroke-linecap:butt;stroke-linejoin:miter;stroke-miterlimit:4;stroke-dasharray:none;stroke-dashoffset:0;stroke-opacity:1;paint-order:markers stroke fill" />
            <path
               inkscape:connector-curvature="0"
               id="path4489-8-7"
               d="m 29.634122,288.84251 a 1.2753394,1.2753394 0 0 1 -1.701243,-0.59897 1.2753394,1.2753394 0 0 1 0.59896,-1.70124 1.2753394,1.2753394 0 0 1 1.701243,0.59896 1.2753394,1.2753394 0 0 1 -0.59896,1.70125 z"
               style="opacity:1;vector-effect:none;fill:#fefefd;fill-opacity:1;stroke:#ffffff;stroke-width:0.09947439;stroke-linecap:butt;stroke-linejoin:miter;stroke-miterlimit:4;stroke-dasharray:none;stroke-dashoffset:0;stroke-opacity:1;paint-order:markers stroke fill" />
            <path
               inkscape:connector-curvature="0"
               id="path4489-2-7"
               d="m 24.450801,285.94982 a 1.1503406,1.1503406 0 0 1 -1.534501,-0.54025 1.1503406,1.1503406 0 0 1 0.540255,-1.53451 1.1503406,1.1503406 0 0 1 1.534501,0.54026 1.1503406,1.1503406 0 0 1 -0.540255,1.5345 z"
               style="opacity:1;vector-effect:none;fill:#fefefd;fill-opacity:1;stroke:#ffffff;stroke-width:0.08972471;stroke-linecap:butt;stroke-linejoin:miter;stroke-miterlimit:4;stroke-dasharray:none;stroke-dashoffset:0;stroke-opacity:1;paint-order:markers stroke fill" />
          </g>
        </g>
        <g
           aria-label="TRACEMAP"
           style="font-style:normal;font-weight:normal;font-size:17.45759392px;line-height:10.91099644px;font-family:sans-serif;letter-spacing:0px;word-spacing:0px;fill:#00bc64;fill-opacity:1;stroke:none;stroke-width:0.05801085"
           id="text4514">
          <path
             d="m 34.744365,291.05029 h 2.207772 v -12.82042 h 2.335635 v -1.73894 h -6.887566 v 1.73894 h 2.344159 z"
             style="font-style:normal;font-variant:normal;font-weight:normal;font-stretch:normal;font-family:FjallaOne;-inkscape-font-specification:FjallaOne;fill:#00bc64;fill-opacity:1;stroke-width:0.05801085"
             id="path4556" />
          <path
             d="m 40.796558,291.05029 h 2.165151 v -5.44697 h 0.826849 l 1.934997,5.44697 h 2.335635 l -2.335635,-5.82204 c 1.227487,-0.61374 1.883852,-2.00319 1.883852,-4.21096 v -0.36654 c 0,-3.95524 -2.77037,-4.15982 -4.415544,-4.15982 h -2.395305 z m 2.165151,-7.041 v -5.90728 h 0.332445 c 1.611076,0 2.096957,0.66489 2.096957,2.16515 v 1.15077 c 0,1.96057 -0.54555,2.59136 -2.096957,2.59136 z"
             style="font-style:normal;font-variant:normal;font-weight:normal;font-stretch:normal;font-family:FjallaOne;-inkscape-font-specification:FjallaOne;fill:#00bc64;fill-opacity:1;stroke-width:0.05801085"
             id="path4558" />
          <path
             d="m 48.647361,291.05029 h 2.241869 l 0.38359,-2.60841 h 2.659555 l 0.400638,2.60841 h 2.233345 l -2.693652,-14.55936 h -2.540217 z m 2.881185,-4.27063 1.03143,-7.25411 h 0.09377 l 1.022906,7.25411 z"
             style="font-style:normal;font-variant:normal;font-weight:normal;font-stretch:normal;font-family:FjallaOne;-inkscape-font-specification:FjallaOne;fill:#00bc64;fill-opacity:1;stroke-width:0.05801085"
             id="path4560" />
          <path
             d="m 61.11829,291.17816 c 2.003191,-0.009 3.102815,-1.09963 3.102815,-3.43526 v -1.34683 h -2.02024 v 1.42355 c 0,1.16781 -0.511453,1.68779 -1.082575,1.68779 -0.895043,0 -1.218963,-0.55407 -1.218963,-2.36121 v -6.64889 c 0,-1.8668 0.426211,-2.44645 1.236011,-2.44645 0.673413,0 1.039955,0.80128 1.039955,2.39531 v 0.74161 h 1.790085 c 0.127863,-0.6308 0.187533,-1.11668 0.187533,-1.73894 0,-1.6878 -0.733083,-3.08577 -3.043145,-3.08577 -1.321254,0 -3.529026,0.40064 -3.529026,4.79061 v 5.15715 c 0,4.37292 2.156627,4.86733 3.53755,4.86733 z"
             style="font-style:normal;font-variant:normal;font-weight:normal;font-stretch:normal;font-family:FjallaOne;-inkscape-font-specification:FjallaOne;fill:#00bc64;fill-opacity:1;stroke-width:0.05801085"
             id="path4562" />
          <path
             d="m 65.960043,291.05029 h 5.481071 v -1.73894 h -3.273299 v -4.98666 h 2.463498 v -1.73894 h -2.463498 v -4.35588 h 3.188057 v -1.73894 h -5.395829 z"
             style="font-style:normal;font-variant:normal;font-weight:normal;font-stretch:normal;font-family:FjallaOne;-inkscape-font-specification:FjallaOne;fill:#00bc64;fill-opacity:1;stroke-width:0.05801085"
             id="path4564" />
          <path
             d="m 73.052191,291.05029 h 2.06286 v -4.81618 c 0,-2.9579 -0.136387,-5.54074 -0.230154,-6.56365 h 0.16196 l 2.216296,9.50451 h 1.397972 l 2.199247,-9.50451 h 0.161961 c -0.09377,1.02291 -0.230154,3.60575 -0.230154,6.56365 v 4.81618 h 2.06286 v -14.55936 h -2.821515 l -1.440593,5.63451 c -0.298347,1.24453 -0.443259,2.3953 -0.596695,3.38411 h -0.06819 c -0.153436,-0.98881 -0.298347,-2.13958 -0.596695,-3.38411 l -1.397971,-5.63451 h -2.881185 z"
             style="font-style:normal;font-variant:normal;font-weight:normal;font-stretch:normal;font-family:FjallaOne;-inkscape-font-specification:FjallaOne;fill:#00bc64;fill-opacity:1;stroke-width:0.05801085"
             id="path4566" />
          <path
             d="m 84.278583,291.05029 h 2.241869 l 0.383589,-2.60841 h 2.659556 l 0.400638,2.60841 h 2.233344 l -2.693652,-14.55936 h -2.540216 z m 2.881185,-4.27063 1.03143,-7.25411 h 0.09377 l 1.022906,7.25411 z"
             style="font-style:normal;font-variant:normal;font-weight:normal;font-stretch:normal;font-family:FjallaOne;-inkscape-font-specification:FjallaOne;fill:#00bc64;fill-opacity:1;stroke-width:0.05801085"
             id="path4568" />
          <path
             d="m 93.6126,291.05029 h 2.207772 v -4.43259 h 0.213106 c 1.696319,0 4.279152,-0.43473 4.279152,-5.106 v -0.51146 c 0,-4.28768 -2.812987,-4.50931 -4.492258,-4.50931 H 93.6126 Z m 2.207772,-6.05219 v -6.89609 h 0.110815 c 1.670746,0 2.114006,0.7757 2.114006,2.50612 v 1.31273 c 0,2.19072 -0.511453,3.07724 -2.114006,3.07724 z"
             style="font-style:normal;font-variant:normal;font-weight:normal;font-stretch:normal;font-family:FjallaOne;-inkscape-font-specification:FjallaOne;fill:#00bc64;fill-opacity:1;stroke-width:0.05801085"
             id="path4570" />
        </g>
        <path
           inkscape:connector-curvature="0"
           style="font-style:normal;font-weight:normal;font-size:medium;line-height:11.37168789px;font-family:sans-serif;letter-spacing:0px;word-spacing:0px;opacity:1;vector-effect:none;fill:none;fill-opacity:1;stroke:#00bc64;stroke-width:1.101;stroke-linecap:butt;stroke-linejoin:miter;stroke-miterlimit:4;stroke-dasharray:none;stroke-dashoffset:0;stroke-opacity:1;paint-order:markers stroke fill"
           d="M 28.149234,283.77061 A 11.578524,11.578524 0 0 1 16.570712,295.34915 11.578524,11.578524 0 0 1 4.992188,283.77061 11.578524,11.578524 0 0 1 16.570712,272.19209 11.578524,11.578524 0 0 1 28.149234,283.77061 Z"
           id="path4525-7" />
        <path
           style="font-style:normal;font-weight:normal;font-size:medium;line-height:11.37168789px;font-family:sans-serif;letter-spacing:0px;word-spacing:0px;fill:#fbfefd;fill-opacity:1;stroke:#00bc64;stroke-width:0.551;stroke-linecap:butt;stroke-linejoin:miter;stroke-miterlimit:4;stroke-dasharray:none;stroke-opacity:1"
           d="m 21.453122,280.00986 -4.306244,7.64119"
           id="path4493-2-7"
           inkscape:connector-curvature="0" />
        <path
           style="font-style:normal;font-weight:normal;font-size:medium;line-height:11.37168789px;font-family:sans-serif;letter-spacing:0px;word-spacing:0px;fill:#fbfefd;fill-opacity:1;stroke:#00bc64;stroke-width:0.551;stroke-linecap:butt;stroke-linejoin:miter;stroke-miterlimit:4;stroke-dasharray:none;stroke-opacity:1"
           d="m 11.40926,284.82299 5.737618,2.82806"
           id="path4495-7-1"
           inkscape:connector-curvature="0" />
        <path
           inkscape:connector-curvature="0"
           id="path4489-86-6"
           d="m 21.906906,282.74167 a 2.2247603,2.2247603 0 0 1 -2.967726,-1.04487 2.2247603,2.2247603 0 0 1 1.044855,-2.96772 2.2247603,2.2247603 0 0 1 2.967726,1.04486 2.2247603,2.2247603 0 0 1 -1.044855,2.96773 z"
           style="font-style:normal;font-weight:normal;font-size:medium;line-height:11.37168789px;font-family:sans-serif;letter-spacing:0px;word-spacing:0px;opacity:1;vector-effect:none;fill:#00bc64;fill-opacity:1;stroke:none;stroke-width:0.95100003;stroke-linecap:butt;stroke-linejoin:miter;stroke-miterlimit:4;stroke-dasharray:none;stroke-dashoffset:0;stroke-opacity:1;paint-order:markers stroke fill" />
        <path
           inkscape:connector-curvature="0"
           id="path4489-8-7-9"
           d="m 17.677515,288.91912 a 1.4455258,1.4455258 0 0 1 -1.928264,-0.6789 1.4455258,1.4455258 0 0 1 0.678888,-1.92826 1.4455258,1.4455258 0 0 1 1.928263,0.67889 1.4455258,1.4455258 0 0 1 -0.678887,1.92827 z"
           style="font-style:normal;font-weight:normal;font-size:medium;line-height:11.37168789px;font-family:sans-serif;letter-spacing:0px;word-spacing:0px;opacity:1;vector-effect:none;fill:#00bc64;fill-opacity:1;stroke:none;stroke-width:0.95100003;stroke-linecap:butt;stroke-linejoin:miter;stroke-miterlimit:4;stroke-dasharray:none;stroke-dashoffset:0;stroke-opacity:1;paint-order:markers stroke fill" />
        <path
           inkscape:connector-curvature="0"
           id="path4489-2-7-8"
           d="m 11.802511,285.64041 a 1.3038467,1.3038467 0 0 1 -1.739271,-0.61234 1.3038467,1.3038467 0 0 1 0.612349,-1.73928 1.3038467,1.3038467 0 0 1 1.73927,0.61235 1.3038467,1.3038467 0 0 1 -0.612348,1.73927 z"
           style="font-style:normal;font-weight:normal;font-size:medium;line-height:11.37168789px;font-family:sans-serif;letter-spacing:0px;word-spacing:0px;opacity:1;vector-effect:none;fill:#00bc64;fill-opacity:1;stroke:none;stroke-width:0.95100003;stroke-linecap:butt;stroke-linejoin:miter;stroke-miterlimit:4;stroke-dasharray:none;stroke-dashoffset:0;stroke-opacity:1;paint-order:markers stroke fill" />
      </g>
    </g>
  </g>
</svg>
